<?xml version="1.0" encoding="utf-8"?>
<!-- Generator: Adobe Illustrator 22.1.0, SVG Export Plug-In . SVG Version: 6.00 Build 0)  -->
<svg version="1.1" id="Layer_1" xmlns="http://www.w3.org/2000/svg" xmlns:xlink="http://www.w3.org/1999/xlink" x="0px" y="0px"
	 viewBox="0 0 189 40" style="enable-background:new 0 0 189 40;" xml:space="preserve">
<style type="text/css">
	.st0{fill:#FFFFFF;}
	.st1{fill:#FFA500;}
	.st2{fill:#413297;}
</style>
<g>
	<path class="st1" d="M21.7,13.4l9.8,17H11.8L21.7,13.4 M21.7,5.8L5.3,34.2H38L21.7,5.8L21.7,5.8z"/>
	<path class="st2" d="M10,14.7L17.1,27H2.9L10,14.7 M10,11.4L0,28.6h19.9L10,11.4L10,11.4z"/>
	<g>
		<path d="M39,11.4h9.3c0.7,0,1.4,0.1,2.1,0.2c0.7,0.2,1.3,0.4,2,0.8c0.6,0.4,1.1,0.9,1.5,1.6c0.4,0.7,0.6,1.5,0.6,2.5
			c0,0.9-0.2,1.8-0.7,2.5c-0.5,0.8-1.1,1.3-1.9,1.7c0.8,0.2,1.4,0.7,1.8,1.6c0.4,0.8,0.7,1.7,0.8,2.7l0.2,1.8
			c0.1,0.9,0.2,1.5,0.4,1.9h-5.2c-0.1-0.3-0.3-0.8-0.3-1.6l-0.1-1c0-0.6-0.1-1.1-0.2-1.4c-0.1-0.4-0.2-0.7-0.4-1.1
			c-0.2-0.4-0.5-0.6-0.9-0.8c-0.4-0.2-0.9-0.2-1.5-0.2h-2.2v6.1H39V11.4z M44.2,15.4v3.5h2.9c1.4,0,2.2-0.6,2.2-1.8
			c0-1.2-0.8-1.7-2.5-1.7H44.2z"/>
		<path d="M65.3,10.9c2.6,0,4.7,0.8,6.3,2.5c1.6,1.7,2.4,3.9,2.4,6.6c0,2.7-0.8,4.9-2.4,6.6c-1.6,1.7-3.7,2.5-6.3,2.5
			c-2.7,0-4.8-0.8-6.4-2.5c-1.6-1.7-2.4-3.9-2.4-6.6c0-2.7,0.8-4.9,2.4-6.6C60.5,11.8,62.6,10.9,65.3,10.9z M65.3,15.2
			c-1.1,0-1.9,0.4-2.5,1.3c-0.6,0.8-0.9,2-0.9,3.5c0,1.5,0.3,2.7,0.9,3.6c0.6,0.8,1.4,1.3,2.5,1.3c1.1,0,1.9-0.4,2.5-1.3
			c0.6-0.8,0.8-2.1,0.8-3.7c0-1.4-0.3-2.6-0.9-3.4C67.1,15.6,66.3,15.2,65.3,15.2z"/>
		<path d="M92.5,21.8c-0.1,2.3-1,4.1-2.5,5.3c-1.5,1.3-3.3,1.9-5.5,1.9c-2.6,0-4.7-0.9-6.3-2.6c-1.6-1.7-2.4-3.9-2.4-6.5
			c0-2.6,0.8-4.7,2.4-6.4c1.6-1.7,3.7-2.6,6.3-2.6c2.1,0,3.9,0.7,5.4,2c1.5,1.3,2.3,2.9,2.4,4.9h-5.1c-0.1-0.8-0.5-1.4-0.9-1.8
			c-0.5-0.4-1.1-0.6-1.8-0.6c-0.8,0-1.4,0.2-2,0.7c-0.5,0.5-0.9,1.1-1.1,1.7c-0.2,0.7-0.3,1.4-0.3,2.2c0,1.4,0.3,2.6,0.9,3.4
			c0.6,0.8,1.4,1.2,2.4,1.2c1.6,0,2.5-0.9,2.8-2.8H92.5z"/>
		<path d="M111.4,11.4l-6.3,6.7l7.3,10.6h-6.6l-4.2-6.7l-1.6,1.6v5.1h-5.2V11.4h5.2l0,3.5c0,0.3,0,1.1-0.1,2.6l4.9-6.1H111.4z"/>
		<path d="M127.2,16.6h-5c0-0.5-0.2-0.9-0.6-1.2c-0.4-0.3-0.9-0.4-1.6-0.4c-1.2,0-1.7,0.4-1.7,1.1c0,0.2,0.1,0.4,0.3,0.6
			c0.2,0.2,0.5,0.3,0.8,0.4c0.3,0.1,0.7,0.2,1,0.3c0.3,0.1,0.6,0.2,1,0.2c0.4,0.1,0.6,0.1,0.6,0.1c0.7,0.2,1.3,0.3,1.7,0.5
			c0.5,0.2,1,0.4,1.6,0.7c0.6,0.3,1,0.6,1.4,1c0.3,0.4,0.6,0.8,0.9,1.4c0.2,0.6,0.4,1.2,0.4,1.9c0,1.8-0.7,3.2-2,4.3
			c-1.4,1.1-3.2,1.6-5.5,1.6c-2.4,0-4.3-0.6-5.7-1.7c-1.4-1.1-2.1-2.6-2.1-4.6h5.3c0.1,1.5,1,2.2,2.7,2.2c0.7,0,1.2-0.1,1.6-0.4
			c0.4-0.3,0.6-0.6,0.6-1c0-0.3-0.1-0.5-0.3-0.7c-0.2-0.2-0.6-0.4-1.2-0.6c-0.6-0.2-1.3-0.4-2.1-0.7c-0.8-0.2-1.3-0.4-1.5-0.5
			c-0.7-0.2-1.3-0.5-1.7-0.7c-0.5-0.2-0.9-0.5-1.3-0.9c-0.4-0.4-0.7-0.8-0.9-1.3c-0.2-0.5-0.3-1.1-0.3-1.9c0-1.6,0.6-2.9,1.9-3.9
			c1.3-1,3-1.5,5.1-1.5c2.2,0,3.9,0.5,5.1,1.5C126.5,13.5,127.1,14.8,127.2,16.6z"/>
		<path d="M138.2,10.9c2.6,0,4.7,0.8,6.3,2.5c1.6,1.7,2.4,3.9,2.4,6.6c0,2.7-0.8,4.9-2.4,6.6c-1.6,1.7-3.7,2.5-6.3,2.5
			c-2.7,0-4.8-0.8-6.4-2.5c-1.6-1.7-2.4-3.9-2.4-6.6c0-2.7,0.8-4.9,2.4-6.6C133.3,11.8,135.5,10.9,138.2,10.9z M138.1,15.2
			c-1.1,0-1.9,0.4-2.5,1.3c-0.6,0.8-0.9,2-0.9,3.5c0,1.5,0.3,2.7,0.9,3.6c0.6,0.8,1.4,1.3,2.5,1.3c1.1,0,1.9-0.4,2.5-1.3
			c0.6-0.8,0.8-2.1,0.8-3.7c0-1.4-0.3-2.6-0.9-3.4C140,15.6,139.1,15.2,138.1,15.2z"/>
		<path d="M162.1,24.2v4.5h-13V11.4h5.3v12.8H162.1z"/>
		<path d="M169.7,11.4v17.3h-5.3V11.4H169.7z"/>
		<path d="M172.6,11.4h7.7c2.7,0,4.8,0.8,6.4,2.3c1.6,1.5,2.4,3.6,2.4,6.3c0,2.8-0.8,5-2.3,6.5c-1.5,1.5-3.7,2.2-6.5,2.2h-7.6V11.4z
			 M177.8,15.7v8.6h2.1c1.3,0,2.2-0.4,2.9-1.1c0.7-0.7,1-1.8,1-3.1c0-1.4-0.4-2.5-1.2-3.3c-0.8-0.7-1.8-1.1-3.2-1.1H177.8z"/>
	</g>
</g>
</svg>
